<svg version="1.0" xmlns="http://www.w3.org/2000/svg" width="800.000000" height="800.000000" viewBox="0 0 800.000000 800.000000" preserveAspectRatio="xMidYMid meet">
  <metadata>
    <rdf:RDF xmlns:rdf="http://www.w3.org/1999/02/22-rdf-syntax-ns#" xmlns:rdfs="http://www.w3.org/2000/01/rdf-schema#" xmlns:dc="http://purl.org/dc/elements/1.1/">
      <rdf:Description dc:format="image/svg+xml" dc:Label="1" dc:ContentProducer="001191330110MACRLGPT8B00000" dc:ProduceID="404649563" dc:ReservedCode1="6WLh96l8Epir+BYknhaEgwZFc29TJpBRoMTVRHsp2Ec=" dc:ContentPropagator="001191330110MACRLGPT8B00000" dc:PropagateID="404649563" dc:ReservedCode2="6WLh96l8Epir+BYknhaEgwZFc29TJpBRoMTVRHsp2Ec="/>
    </rdf:RDF>
  </metadata>
  <g transform="translate(-5.351770,818.195185) scale(0.103618,-0.103618)" fill="#000000" stroke="none">
    <path d="M3075 5649 c-632 -48 -978 -326 -1120 -899 -59 -237 -69 -340 -70 -690 0 -344 5 -405 51 -595 53 -217 125 -385 225 -531 87 -125 240 -259 374 -326 155 -78 409 -141 670 -167 437 -43 1099 -35 1514 20 598 78 880 256 1044 659 136 335 187 691 174 1225 -9 359 -35 517 -111 680 -82 174 -238 305 -497 414 -271 115 -562 181 -922 211 -145 11 -1178 11 -1332 -1z m1365 -119 c516 -50 943 -192 1165 -389 111 -98 162 -211 197 -441 21 -137 17 -806 -6 -985 -21 -168 -69 -361 -125 -510 -127 -336 -298 -482 -673 -574 -175 -43 -396 -74 -386 -53 87 168 122 292 134 464 6 101 -12 258 -43 355 -31 99 -111 164 -182 148 -16 -3 -62 -35 -102 -70 -176 -154 -244 -140 -347 72 -47 98 -63 122 -119 172 l-65 59 -14 90 c-22 148 -53 199 -151 246 -32 15 -74 35 -93 44 -47 23 -48 44 -10 199 38 151 48 277 30 354 -7 30 -37 104 -66 164 -69 145 -84 200 -84 305 0 100 10 161 45 277 20 66 30 83 48 87 37 8 735 -3 847 -14z m-1109 -92 c14 -27 3 -67 -29 -100 -39 -42 -53 -37 -45 17 8 60 -11 67 -77 26 -57 -35 -93 -41 -88 -14 4 21 182 103 209 96 11 -3 24 -14 30 -25z m-991 -488 c90 -33 114 -47 185 -105 73 -60 97 -87 195 -230 103 -150 165 -225 235 -285 58 -51 166 -104 241 -121 30 -7 54 -16 54 -20 0 -4 -32 -36 -70 -70 -86 -76 -102 -115 -76 -183 11 -28 36 -62 65 -88 58 -53 77 -81 86 -132 4 -22 17 -60 29 -85 16 -32 25 -73 30 -136 3 -49 18 -133 32 -186 32 -123 30 -194 -6 -220 -14 -11 -93 -34 -176 -53 -95 -21 -171 -44 -203 -62 -90 -48 -149 -128 -202 -269 -24 -64 -18 -64 -135 -10 -277 127 -467 375 -563 738 -116 436 -84 1110 71 1486 l31 73 49 -6 c27 -4 85 -20 128 -36z m1130 -763 c0 -68 43 -107 193 -171 68 -30 79 -50 96 -173 13 -104 35 -147 105 -207 44 -38 67 -68 108 -149 87 -169 155 -227 268 -227 78 0 107 13 213 94 48 36 93 66 102 66 41 0 69 -131 69 -320 1 -120 -4 -161 -23 -234 -26 -99 -67 -197 -113 -268 -25 -40 -35 -48 -60 -48 l-31 0 51 53 c61 65 97 134 123 235 19 77 26 222 10 222 -5 0 -22 -21 -37 -47 -63 -109 -184 -257 -184 -225 0 10 -10 2 -27 -23 l-28 -40 -3 29 -4 28 -25 -38 c-62 -94 -97 -112 -258 -134 -44 -6 -84 -15 -89 -20 -6 -6 14 -16 52 -26 34 -10 62 -21 62 -26 0 -11 -418 -10 -602 2 -258 18 -550 58 -571 79 -13 13 50 165 81 196 63 64 87 75 243 110 168 39 217 61 263 118 29 37 31 44 30 120 -1 52 -9 112 -23 162 -13 44 -27 125 -32 179 -6 60 -19 123 -33 160 -14 34 -32 88 -41 121 -14 50 -26 68 -81 120 -35 34 -64 68 -64 76 0 7 26 36 57 64 31 27 87 78 123 112 36 35 68 63 73 63 4 0 7 -15 7 -33z"/>
    <path d="M4963 5231 c-91 -23 -179 -110 -205 -201 -29 -106 -2 -241 73 -355 59 -91 244 -280 323 -330 109 -69 178 -57 297 53 98 91 175 188 235 297 l16 30 -34 -32 c-18 -18 -49 -36 -68 -39 -46 -9 -78 -32 -173 -121 -123 -117 -154 -130 -216 -92 -124 75 -275 237 -322 345 -26 58 -36 163 -20 219 25 93 104 160 202 172 53 6 170 -14 181 -31 13 -20 -14 -23 -70 -9 -49 13 -110 11 -134 -3 -5 -3 -1 -19 8 -35 15 -30 15 -31 -8 -23 -82 26 -92 25 -121 -9 -56 -65 -69 -172 -31 -253 20 -41 150 -165 204 -194 29 -16 19 -23 -14 -10 l-27 10 22 -31 c12 -17 39 -44 61 -60 69 -50 112 -52 67 -3 -17 19 -20 28 -11 31 7 3 54 32 105 66 110 72 224 127 266 127 23 0 41 11 71 42 33 35 43 40 50 28 10 -15 13 -38 11 -75 0 -11 11 3 24 30 29 59 30 66 10 133 -23 75 -95 150 -192 198 -74 37 -83 39 -174 39 -77 0 -96 3 -95 14 1 9 -26 26 -68 44 -74 31 -183 43 -243 28z m217 -651 c0 -11 -3 -20 -8 -20 -4 0 -13 9 -20 20 -11 18 -10 20 8 20 13 0 20 -7 20 -20z"/>
    <path d="M5519 4707 c-32 -28 -132 -157 -121 -157 7 0 79 72 147 148 33 37 15 44 -26 9z"/>
    <path d="M5474 3300 c-59 -33 -61 -37 -70 -128 -8 -76 -27 -138 -51 -164 -23 -25 -30 -23 -38 15 -11 49 -35 97 -57 108 -30 16 -48 -40 -41 -132 5 -73 5 -76 -22 -97 -36 -28 -81 -40 -218 -57 -120 -15 -121 -15 -158 -87 -12 -23 -15 -39 -9 -43 11 -7 230 19 315 37 110 23 268 115 333 194 48 58 89 142 118 242 24 87 25 94 10 117 -22 33 -49 32 -112 -5z"/>
    <path d="M2177 4808 c-2 -7 0 -24 4 -37 8 -20 14 -23 45 -18 27 5 43 0 71 -19 41 -28 71 -30 99 -9 18 14 18 16 -18 50 -30 28 -46 35 -77 35 -22 0 -46 -7 -55 -15 -14 -14 -17 -14 -28 5 -14 23 -33 26 -41 8z"/>
  </g>
</svg>